<?xml version="1.0" standalone="no"?>
<!DOCTYPE svg PUBLIC "-//W3C//DTD SVG 20010904//EN"
 "http://www.w3.org/TR/2001/REC-SVG-20010904/DTD/svg10.dtd">
<svg version="1.0" xmlns="http://www.w3.org/2000/svg"
 width="576.000000pt" height="576.000000pt" viewBox="0 0 576.000000 576.000000"
 preserveAspectRatio="xMidYMid meet">
<metadata>
Created by potrace 1.14, written by Peter Selinger 2001-2017
</metadata>
<g transform="translate(0.000000,576.000000) scale(0.100000,-0.100000)"
fill="#000000" stroke="none">
<path d="M1737 5423 c-38 -19 -80 -86 -82 -130 -2 -19 4 -59 12 -87 7 -28 16
-59 18 -69 2 -9 6 -21 9 -25 3 -5 7 -19 9 -33 3 -13 12 -46 20 -74 16 -52 53
-177 67 -230 5 -16 15 -52 24 -80 9 -27 18 -59 21 -70 2 -11 13 -51 24 -90 11
-38 36 -128 56 -200 19 -71 40 -141 45 -155 6 -14 12 -36 15 -50 3 -13 14 -55
25 -92 28 -96 57 -195 71 -248 16 -59 16 -57 33 -117 9 -29 22 -75 30 -103
l14 -50 -51 0 c-29 0 -61 0 -72 -1 -73 0 -172 0 -185 0 -60 2 -102 1 -108 -3
-5 -3 -14 -1 -21 3 -7 5 -30 5 -52 1 -22 -4 -41 -4 -44 0 -2 4 -25 4 -50 0
-25 -4 -45 -4 -45 -1 0 3 -24 5 -52 4 -29 -1 -62 -3 -73 -3 -23 -1 -173 -2
-192 -1 -91 3 -65 -23 -307 300 -123 163 -236 305 -251 315 -16 10 -51 21 -79
23 -28 2 -56 6 -63 8 -7 2 -15 0 -18 -6 -4 -5 -10 -7 -15 -4 -7 5 -209 9 -230
5 -3 0 -35 -2 -71 -3 -55 -2 -73 -8 -104 -31 -59 -45 -74 -99 -52 -191 3 -11
33 -114 67 -230 34 -115 63 -214 64 -220 1 -5 9 -30 16 -55 16 -52 14 -45 24
-90 5 -19 11 -39 15 -45 3 -5 6 -12 7 -15 3 -15 20 -77 46 -165 16 -55 38
-131 48 -168 21 -78 26 -51 -75 -392 -40 -133 -59 -202 -89 -310 -2 -5 -6 -17
-9 -25 -3 -8 -33 -112 -67 -230 -76 -266 -75 -297 10 -359 33 -24 47 -28 104
-27 36 1 66 -1 66 -4 0 -3 26 -4 57 -2 32 1 74 2 93 2 19 -1 42 -1 50 -1 45 2
114 0 118 -3 8 -8 68 18 106 45 22 16 36 29 32 29 -7 0 19 35 69 93 8 9 15 19
15 21 0 8 224 301 232 304 4 2 8 8 8 13 0 5 23 39 51 75 49 62 54 65 90 63 21
-2 41 -1 44 2 3 3 24 3 48 0 23 -4 61 -4 85 -1 24 4 45 4 47 0 2 -3 31 -3 64
0 34 3 61 3 61 0 0 -3 50 -5 110 -5 61 0 110 3 110 6 0 3 23 3 50 -1 28 -4 50
-3 50 0 0 4 20 4 43 0 24 -3 52 -3 63 0 10 4 30 4 44 0 14 -4 39 -3 56 0 18 4
38 4 45 0 7 -5 18 -6 26 -3 7 3 19 3 27 0 12 -5 12 -13 -1 -54 -24 -79 -64
-217 -67 -233 -1 -8 -5 -22 -8 -30 -6 -17 -57 -193 -63 -219 -2 -9 -11 -38
-19 -66 -8 -27 -33 -114 -55 -192 -119 -415 -170 -596 -177 -623 -2 -8 -15
-53 -29 -100 -15 -47 -28 -92 -30 -100 -1 -8 -11 -41 -20 -73 -23 -79 -14
-126 34 -175 22 -23 52 -42 71 -45 18 -4 190 -7 382 -7 395 0 397 0 447 74 15
22 45 73 66 111 22 39 41 72 44 75 3 3 17 28 31 55 14 28 27 52 31 55 3 3 20
32 39 65 33 60 52 93 91 163 12 20 33 57 47 82 14 25 36 62 49 82 12 21 23 42
23 48 0 5 5 10 10 10 6 0 10 9 10 20 0 11 5 20 10 20 6 0 10 4 10 10 0 5 18
39 40 75 22 36 40 69 40 74 0 5 6 16 13 23 10 11 22 31 71 123 6 11 14 22 17
25 3 3 18 31 34 62 16 32 33 58 37 58 4 0 8 6 8 13 0 7 13 33 28 58 16 24 45
74 65 112 21 37 58 101 82 143 25 42 45 77 45 79 0 3 25 45 55 96 30 50 55 95
55 99 0 12 31 16 75 10 22 -3 75 -3 117 0 42 3 87 2 100 -1 13 -3 40 -2 60 1
20 4 42 4 48 0 6 -4 29 -4 51 0 22 4 41 4 44 0 2 -4 25 -4 50 0 25 4 45 4 45
1 0 -3 24 -5 52 -4 87 4 90 4 180 3 48 -1 92 1 97 4 5 4 12 3 15 -2 2 -4 32
-5 65 -2 34 3 61 3 61 -1 0 -4 8 -6 17 -4 10 2 61 6 113 9 52 3 106 8 120 11
34 8 61 14 87 19 12 3 30 9 40 14 10 6 20 10 23 9 16 -2 129 43 215 85 190 94
331 217 395 344 32 63 35 77 35 154 0 76 -4 92 -35 154 -31 62 -116 161 -190
221 -113 92 -362 205 -528 240 -115 24 -269 34 -292 20 -5 -3 -11 -2 -14 3 -2
4 -32 5 -65 2 -34 -3 -61 -3 -61 0 0 5 -105 4 -268 -3 -34 -1 -62 0 -62 3 0 4
-27 4 -125 0 -11 -1 -38 -1 -60 -1 -22 0 -47 0 -55 0 -8 0 -66 0 -128 1 -62 1
-115 1 -117 -1 -2 -2 -25 -3 -52 -1 -47 4 -50 5 -73 50 -13 26 -31 58 -40 72
-10 14 -34 57 -55 95 -20 39 -44 77 -51 86 -8 8 -14 18 -14 22 0 3 -13 28 -29
55 -33 57 -76 132 -106 187 -12 22 -37 65 -55 95 -18 30 -48 84 -68 120 -19
36 -41 72 -48 81 -8 8 -14 18 -14 21 0 6 -91 170 -110 198 -6 8 -17 29 -25 45
-9 17 -21 39 -28 50 -26 41 -57 95 -105 181 -27 49 -58 105 -69 124 -11 19
-55 96 -98 170 -123 215 -134 231 -181 252 -40 17 -70 18 -406 17 -294 -1
-368 -4 -391 -16z"/>
</g>
</svg>
